<svg fill="none" height="116" viewBox="0 0 611 116" width="611" xmlns="http://www.w3.org/2000/svg"><g fill="#000"><path clip-rule="evenodd" d="m29.3378 0h87.0002v87l-29.0002 29v-87h-87.000031zm-29.000031 95.7389v-37.7389h37.738831zm58.000031 20.2611h-37.249l37.249-37.2488z" fill-rule="evenodd"/><path d="m407.782 107.818c-6.716 0-12.696-1.564-17.94-4.692-5.244-3.2199-9.338-7.7279-12.282-13.5239s-4.416-12.466-4.416-20.01 1.472-14.214 4.416-20.01 7.038-10.258 12.282-13.386c5.244-3.22 11.224-4.83 17.94-4.83s12.696 1.61 17.94 4.83c5.244 3.128 9.338 7.59 12.282 13.386s4.416 12.466 4.416 20.01-1.472 14.214-4.416 20.01-7.038 10.304-12.282 13.5239c-5.244 3.128-11.224 4.692-17.94 4.692zm0-14.3519c5.52 0 9.844-2.116 12.972-6.348 3.22-4.232 4.83-10.074 4.83-17.526s-1.61-13.294-4.83-17.526c-3.128-4.232-7.452-6.348-12.972-6.348s-9.89 2.116-13.11 6.348c-3.128 4.232-4.692 10.074-4.692 17.526s1.564 13.294 4.692 17.526c3.22 4.232 7.59 6.348 13.11 6.348z"/><path d="m319.378 8.18208v34.77602c2.208-3.772 5.06-6.624 8.556-8.556 3.496-2.024 7.682-3.036 12.558-3.036 6.256 0 11.592 1.702 16.008 5.106 4.416 3.312 7.728 7.866 9.936 13.662s3.312 12.282 3.312 19.458-1.104 13.662-3.312 19.458-5.52 10.396-9.936 13.7999c-4.416 3.312-9.752 4.968-16.008 4.968-5.152 0-9.568-1.012-13.248-3.036-3.588-2.116-6.394-5.1519-8.418-9.1079l-.414 10.4879h-15.042v-97.97992zm-1.242 61.41002c0 4.416.598 8.418 1.794 12.006 1.288 3.588 3.22 6.486 5.796 8.694 2.668 2.116 5.934 3.174 9.798 3.174 5.704 0 10.028-2.254 12.972-6.762s4.416-10.212 4.416-17.112c0-7.084-1.472-12.88-4.416-17.388s-7.268-6.762-12.972-6.762c-3.864 0-7.13 1.058-9.798 3.174-2.576 2.116-4.508 5.014-5.796 8.694-1.196 3.68-1.794 7.774-1.794 12.282z"/><path d="m278.584 33.0221v73.1399h-16.008v-73.1399zm-2.07 0v14.214h-39.192v-14.214zm23.322 58.926v14.2139h-62.514v-14.2139zm-21.39-83.76602v15.31802h-16.698v-15.31802z"/><path d="m177.76 8.18208v38.77802l34.5-38.77802h20.562l-36.57 42.50402 38.916 55.4759h-19.872l-30.36-43.3319-7.176 7.59v35.7419h-16.422v-97.97992z"/><path d="m609.674 23.155h-22.218v67.62h22.77v15.18h-62.1v-15.18h22.77v-67.62h-22.218v-15.18h60.996z"/><path d="m544.04 71.179c0 11.592-2.944 20.654-8.832 27.186s-14.214 9.798-24.978 9.798-19.09-3.266-24.978-9.798-8.832-15.594-8.832-27.186v-63.342h16.422v64.722c0 6.532 1.472 11.592 4.416 15.18 2.944 3.496 7.268 5.244 12.972 5.244s10.028-1.748 12.972-5.244c2.944-3.588 4.416-8.648 4.416-15.18v-64.722h16.422z"/></g></svg>